<svg xmlns="http://www.w3.org/2000/svg" viewBox="0 0 1024 1024" width="1024" height="1024">
<path fill="#283593" fill-rule="evenodd" d="M 509.70 338.23 L 509.34 338.58 L 507.93 338.58 L 504.38 340.00 L 503.67 340.71 L 501.90 341.41 L 501.19 342.12 L 494.46 345.67 L 491.98 347.44 L 490.21 348.15 L 489.50 348.85 L 482.77 352.40 L 480.65 354.17 L 479.23 354.88 L 478.52 354.88 L 477.81 355.58 L 476.04 356.29 L 475.33 357.00 L 468.60 360.54 L 466.12 362.32 L 464.35 363.02 L 463.64 363.73 L 461.87 364.44 L 461.16 365.15 L 454.43 368.69 L 451.95 370.46 L 450.18 371.17 L 449.47 371.88 L 442.74 375.42 L 440.26 377.20 L 438.49 377.90 L 437.78 378.61 L 436.01 379.32 L 435.30 380.03 L 428.57 383.57 L 426.09 385.34 L 424.32 386.05 L 423.61 386.76 L 421.84 387.47 L 421.13 388.18 L 414.40 391.72 L 411.92 393.49 L 410.14 394.20 L 409.44 394.91 L 402.70 398.45 L 400.22 400.22 L 398.45 400.93 L 397.74 401.64 L 391.01 405.18 L 388.53 406.96 L 386.05 408.02 L 383.57 409.79 L 381.80 410.50 L 381.09 411.21 L 379.32 411.92 L 378.61 412.62 L 376.84 413.33 L 376.13 414.04 L 374.36 414.75 L 371.17 416.88 L 368.69 417.94 L 364.09 421.13 L 361.61 424.32 L 360.19 427.15 L 360.19 427.86 L 359.48 429.28 L 359.48 430.69 L 359.13 431.05 L 359.13 593.31 L 359.48 593.66 L 359.48 595.43 L 359.84 595.79 L 359.84 596.50 L 361.96 600.75 L 365.50 604.29 L 367.63 605.35 L 368.34 606.06 L 375.07 609.60 L 377.55 611.38 L 379.32 612.08 L 380.03 612.79 L 381.80 613.50 L 384.28 615.27 L 388.53 617.40 L 391.01 619.17 L 397.74 622.71 L 400.22 624.48 L 404.48 626.61 L 406.96 628.38 L 411.21 630.51 L 413.69 632.28 L 417.94 634.40 L 420.42 636.18 L 424.67 638.30 L 427.15 640.07 L 428.92 640.78 L 429.63 641.49 L 431.40 642.20 L 433.88 643.97 L 438.13 646.10 L 440.61 647.87 L 447.34 651.41 L 449.82 653.18 L 454.08 655.31 L 456.56 657.08 L 460.81 659.20 L 463.29 660.98 L 467.54 663.10 L 470.02 664.87 L 474.27 667.00 L 476.75 668.77 L 481.00 670.90 L 483.48 672.67 L 487.73 674.79 L 490.21 676.56 L 496.94 680.11 L 497.65 680.81 L 503.67 684.00 L 504.38 684.71 L 505.09 684.71 L 506.15 685.42 L 508.28 685.77 L 508.63 686.13 L 515.01 686.13 L 515.37 685.77 L 516.78 685.77 L 520.33 684.36 L 521.03 683.65 L 527.06 680.46 L 527.77 679.75 L 529.54 679.04 L 532.02 677.27 L 533.79 676.56 L 534.50 675.85 L 541.23 672.31 L 543.71 670.54 L 550.44 667.00 L 552.92 665.23 L 559.65 661.68 L 561.78 659.91 L 563.19 659.20 L 563.90 659.20 L 564.61 658.50 L 568.86 656.37 L 571.34 654.60 L 578.07 651.06 L 580.20 649.28 L 587.28 645.74 L 589.41 643.97 L 590.83 643.26 L 591.54 643.26 L 592.24 642.55 L 598.98 639.01 L 601.46 637.24 L 608.19 633.70 L 610.67 631.92 L 617.40 628.38 L 619.88 626.61 L 621.65 625.90 L 622.36 625.19 L 624.13 624.48 L 624.84 623.78 L 631.57 620.23 L 634.05 618.46 L 640.78 614.92 L 643.26 613.15 L 647.51 611.02 L 649.64 609.25 L 651.06 608.54 L 651.76 608.54 L 652.47 607.83 L 655.66 606.42 L 660.27 603.23 L 662.39 600.75 L 664.52 596.50 L 664.52 595.79 L 664.87 595.43 L 664.87 593.66 L 665.23 593.31 L 665.23 431.40 L 664.87 431.05 L 664.87 429.28 L 664.52 428.92 L 664.16 427.15 L 662.04 423.25 L 660.62 421.48 L 655.66 417.94 L 653.89 417.23 L 651.41 415.46 L 644.68 411.92 L 643.97 411.21 L 637.95 408.02 L 637.24 407.31 L 636.53 407.31 L 635.11 406.60 L 632.99 404.83 L 631.22 404.12 L 628.03 402.00 L 627.32 402.00 L 625.90 401.29 L 621.30 398.10 L 617.04 395.97 L 616.34 395.26 L 610.31 392.08 L 609.60 391.37 L 608.90 391.37 L 607.48 390.66 L 605.35 388.89 L 601.10 386.76 L 600.39 386.05 L 594.37 382.86 L 593.66 382.16 L 591.89 381.45 L 591.18 380.74 L 590.47 380.74 L 589.06 380.03 L 586.93 378.26 L 585.16 377.55 L 584.45 376.84 L 583.74 376.84 L 582.32 376.13 L 580.20 374.36 L 578.43 373.65 L 575.24 371.53 L 574.53 371.53 L 573.11 370.82 L 570.99 369.05 L 564.26 365.50 L 563.55 364.80 L 557.53 361.61 L 556.82 360.90 L 556.11 360.90 L 554.69 360.19 L 552.57 358.42 L 550.79 357.71 L 550.09 357.00 L 549.38 357.00 L 547.96 356.29 L 545.83 354.52 L 539.10 350.98 L 538.39 350.27 L 532.37 347.08 L 531.66 346.37 L 530.95 346.37 L 529.54 345.67 L 527.41 343.89 L 525.64 343.19 L 522.45 341.06 L 521.74 341.06 L 518.20 338.93 L 516.07 338.58 L 515.72 338.23 Z M 512.18 376.49 L 512.89 376.84 L 515.37 376.84 L 515.72 377.20 L 518.55 377.90 L 520.68 378.97 L 521.39 379.68 L 522.10 379.68 L 523.51 380.38 L 525.64 382.16 L 532.37 385.70 L 534.85 387.47 L 536.62 388.18 L 537.33 388.89 L 544.06 392.43 L 546.54 394.20 L 550.79 396.33 L 553.27 398.10 L 555.05 398.81 L 555.75 399.52 L 562.49 403.06 L 564.97 404.83 L 571.70 408.37 L 572.40 409.08 L 578.43 412.27 L 579.14 412.98 L 580.91 413.69 L 581.62 414.40 L 583.39 415.10 L 584.10 415.81 L 584.80 415.81 L 586.22 416.52 L 588.35 418.29 L 590.12 419.00 L 590.83 419.71 L 592.60 420.42 L 593.31 421.13 L 595.08 421.84 L 598.27 423.96 L 598.98 423.96 L 600.39 424.67 L 602.52 426.44 L 604.29 427.15 L 605.00 427.86 L 611.73 431.40 L 614.21 433.17 L 615.98 433.88 L 616.69 434.59 L 618.46 435.30 L 619.17 436.01 L 625.19 439.20 L 629.09 442.74 L 630.86 445.57 L 630.86 446.28 L 631.57 447.70 L 631.57 448.76 L 631.92 449.12 L 631.92 574.88 L 631.57 575.24 L 631.57 576.30 L 630.51 579.14 L 629.09 581.26 L 626.26 584.10 L 624.13 585.16 L 623.42 585.87 L 621.65 586.58 L 619.52 588.35 L 617.75 589.06 L 615.63 590.47 L 614.92 590.47 L 614.21 591.18 L 609.96 593.31 L 607.48 595.08 L 605.71 595.79 L 605.00 596.50 L 598.27 600.04 L 596.14 601.81 L 594.72 602.52 L 594.02 602.52 L 593.31 603.23 L 586.58 606.77 L 584.45 608.54 L 583.03 609.25 L 582.32 609.25 L 581.62 609.96 L 574.88 613.50 L 572.40 615.27 L 570.63 615.98 L 569.92 616.69 L 563.19 620.23 L 560.71 622.00 L 558.94 622.71 L 558.23 623.42 L 551.50 626.96 L 550.79 627.67 L 544.77 630.86 L 544.06 631.57 L 542.29 632.28 L 539.81 634.05 L 538.04 634.76 L 537.33 635.47 L 530.60 639.01 L 528.47 640.78 L 527.06 641.49 L 526.35 641.49 L 525.64 642.20 L 523.87 642.91 L 523.16 643.62 L 521.39 644.32 L 520.68 645.03 L 518.55 646.10 L 517.85 646.10 L 515.37 647.16 L 512.89 647.16 L 512.53 647.51 L 511.82 647.16 L 509.34 647.16 L 508.99 646.80 L 506.15 646.10 L 502.61 644.32 L 500.13 642.55 L 493.40 639.01 L 490.92 637.24 L 486.67 635.11 L 484.19 633.34 L 477.46 629.80 L 474.98 628.03 L 468.25 624.48 L 465.77 622.71 L 461.51 620.59 L 459.03 618.82 L 452.30 615.27 L 451.60 614.56 L 445.57 611.38 L 444.86 610.67 L 444.16 610.67 L 442.74 609.96 L 440.61 608.19 L 438.84 607.48 L 438.13 606.77 L 436.36 606.06 L 433.88 604.29 L 432.11 603.58 L 431.40 602.87 L 427.15 600.75 L 424.67 598.98 L 420.42 596.85 L 417.94 595.08 L 413.69 592.95 L 411.21 591.18 L 409.44 590.47 L 408.73 589.76 L 404.48 587.64 L 402.00 585.87 L 400.22 585.16 L 395.97 581.26 L 394.20 578.43 L 394.20 577.72 L 393.49 576.30 L 393.49 575.24 L 393.14 574.88 L 393.14 449.12 L 393.49 448.76 L 393.49 447.70 L 394.56 444.86 L 395.97 442.74 L 400.22 438.84 L 402.00 438.13 L 402.70 437.42 L 404.48 436.72 L 406.96 434.94 L 408.73 434.24 L 409.44 433.53 L 413.69 431.40 L 416.17 429.63 L 420.42 427.50 L 422.90 425.73 L 427.15 423.61 L 429.63 421.84 L 431.40 421.13 L 432.11 420.42 L 436.36 418.29 L 438.84 416.52 L 443.09 414.40 L 445.22 412.62 L 446.64 411.92 L 447.34 411.92 L 448.05 411.21 L 452.30 409.08 L 454.78 407.31 L 459.03 405.18 L 461.16 403.41 L 462.58 402.70 L 463.29 402.70 L 463.99 402.00 L 468.25 399.87 L 470.73 398.10 L 477.46 394.56 L 479.94 392.78 L 486.67 389.24 L 489.15 387.47 L 493.40 385.34 L 494.11 384.64 L 500.13 381.45 L 500.84 380.74 L 502.61 380.03 L 503.32 379.32 L 506.15 377.90 L 506.86 377.90 L 509.34 376.84 L 511.82 376.84 Z M 512.89 99.09 L 512.18 99.09 L 508.63 100.50 L 506.51 100.86 L 502.97 102.63 L 502.26 103.34 L 500.49 104.05 L 498.01 105.82 L 491.27 109.36 L 489.15 111.13 L 487.73 111.84 L 487.02 111.84 L 486.31 112.55 L 482.06 114.67 L 479.94 116.45 L 478.52 117.15 L 477.81 117.15 L 477.10 117.86 L 470.37 121.41 L 467.89 123.18 L 463.64 125.30 L 461.16 127.07 L 454.43 130.62 L 451.95 132.39 L 445.22 135.93 L 442.74 137.70 L 436.01 141.24 L 433.53 143.02 L 426.80 146.56 L 424.67 148.33 L 423.25 149.04 L 422.54 149.04 L 421.84 149.75 L 415.10 153.29 L 412.98 155.06 L 411.56 155.77 L 410.85 155.77 L 410.14 156.48 L 403.41 160.02 L 400.93 161.79 L 399.16 162.50 L 398.45 163.21 L 394.20 165.34 L 391.72 167.11 L 384.99 170.65 L 382.51 172.42 L 378.26 174.55 L 376.13 176.32 L 374.36 177.03 L 372.24 178.44 L 371.53 178.44 L 370.82 179.15 L 366.57 181.28 L 364.44 183.05 L 363.02 183.76 L 362.32 183.76 L 361.61 184.47 L 357.36 186.59 L 354.88 188.36 L 348.15 191.91 L 345.67 193.68 L 338.93 197.22 L 336.81 198.99 L 335.39 199.70 L 334.68 199.70 L 333.97 200.41 L 329.72 202.54 L 327.60 204.31 L 326.18 205.02 L 325.47 205.02 L 324.76 205.72 L 318.03 209.27 L 315.55 211.04 L 308.82 214.58 L 306.34 216.35 L 299.61 219.90 L 297.13 221.67 L 290.40 225.21 L 287.92 226.98 L 281.19 230.52 L 279.06 232.30 L 277.64 233.00 L 276.93 233.00 L 274.10 235.13 L 272.68 235.84 L 271.97 235.84 L 269.49 237.61 L 264.53 240.09 L 260.64 242.92 L 259.22 243.63 L 258.51 243.63 L 257.80 244.34 L 255.32 245.40 L 254.61 246.11 L 251.07 247.88 L 248.59 249.65 L 246.11 250.72 L 242.22 253.55 L 240.80 254.26 L 240.09 254.26 L 239.38 254.97 L 236.90 256.03 L 236.19 256.74 L 232.65 258.51 L 228.40 261.35 L 225.92 262.41 L 225.21 263.12 L 221.67 264.89 L 219.54 266.66 L 216.35 268.08 L 214.58 269.49 L 213.16 270.20 L 212.46 270.20 L 210.33 271.97 L 207.50 273.04 L 200.06 278.00 L 192.97 281.54 L 189.43 284.02 L 186.24 285.44 L 183.76 287.21 L 181.99 287.92 L 179.86 289.69 L 178.44 290.40 L 177.74 290.40 L 177.03 291.11 L 175.26 291.81 L 173.13 293.59 L 171.71 294.29 L 171.00 294.29 L 170.30 295.00 L 168.52 295.71 L 165.34 297.84 L 161.44 299.61 L 157.19 302.80 L 157.19 303.15 L 155.77 304.57 L 153.64 309.17 L 152.23 311.30 L 149.75 313.78 L 147.27 315.20 L 146.56 315.20 L 144.08 316.26 L 141.60 316.26 L 141.24 316.61 L 141.24 707.03 L 141.60 707.39 L 144.08 707.39 L 144.43 707.74 L 147.27 708.45 L 149.75 709.87 L 152.23 712.35 L 153.64 714.47 L 154.00 715.89 L 156.48 720.49 L 159.31 723.33 L 162.50 725.45 L 169.59 729.00 L 171.36 730.41 L 173.84 731.48 L 175.96 733.25 L 182.70 736.79 L 183.40 737.50 L 186.95 739.27 L 187.66 739.98 L 188.36 739.98 L 189.78 740.69 L 190.49 741.40 L 193.32 742.81 L 194.39 743.88 L 196.16 744.59 L 200.41 747.42 L 202.18 748.13 L 205.37 750.25 L 206.08 750.25 L 207.50 750.96 L 211.04 753.44 L 213.52 754.51 L 215.29 755.92 L 218.48 757.34 L 221.67 759.82 L 226.63 762.30 L 227.34 763.01 L 229.11 763.72 L 229.82 764.43 L 230.88 764.78 L 233.36 766.55 L 235.84 767.61 L 236.55 768.32 L 238.32 769.03 L 239.03 769.74 L 239.74 769.74 L 241.15 770.45 L 245.05 773.28 L 247.53 774.35 L 248.24 775.05 L 251.78 776.83 L 254.26 778.60 L 256.74 779.66 L 257.45 780.37 L 258.16 780.37 L 259.57 781.08 L 261.70 782.85 L 265.95 784.97 L 266.66 785.68 L 267.37 785.68 L 268.79 786.39 L 270.91 788.16 L 272.68 788.87 L 275.87 791.00 L 276.58 791.00 L 278.71 792.41 L 280.48 793.12 L 282.60 794.89 L 289.33 798.44 L 291.81 800.21 L 298.55 803.75 L 301.03 805.52 L 307.76 809.06 L 308.47 809.77 L 314.49 812.96 L 315.20 813.67 L 316.97 814.38 L 317.68 815.09 L 318.39 815.09 L 319.80 815.80 L 321.93 817.57 L 323.70 818.28 L 324.41 818.98 L 326.18 819.69 L 329.37 821.82 L 330.08 821.82 L 331.49 822.53 L 333.62 824.30 L 340.35 827.84 L 341.06 828.55 L 347.08 831.74 L 347.79 832.45 L 348.50 832.45 L 349.92 833.16 L 352.04 834.93 L 358.77 838.47 L 361.25 840.24 L 367.98 843.78 L 370.46 845.56 L 372.24 846.26 L 372.94 846.97 L 379.68 850.52 L 382.16 852.29 L 388.89 855.83 L 391.37 857.60 L 398.10 861.14 L 398.81 861.85 L 404.83 865.04 L 405.54 865.75 L 407.31 866.46 L 408.02 867.17 L 408.73 867.17 L 410.14 867.88 L 412.27 869.65 L 414.04 870.36 L 417.23 872.48 L 417.94 872.48 L 420.06 873.90 L 421.84 874.61 L 423.96 876.38 L 425.73 877.09 L 428.92 879.21 L 429.63 879.21 L 431.05 879.92 L 433.17 881.69 L 439.90 885.23 L 442.38 887.01 L 449.12 890.55 L 451.60 892.32 L 458.33 895.86 L 460.81 897.63 L 462.58 898.34 L 463.29 899.05 L 470.02 902.59 L 472.50 904.37 L 479.23 907.91 L 479.94 908.62 L 485.96 911.81 L 486.67 912.51 L 488.44 913.22 L 489.15 913.93 L 489.86 913.93 L 491.27 914.64 L 493.40 916.41 L 495.17 917.12 L 498.36 919.25 L 499.07 919.25 L 500.49 919.95 L 502.61 921.73 L 506.15 923.50 L 510.05 924.56 L 511.82 925.62 L 513.95 924.56 L 514.66 924.56 L 517.14 923.50 L 518.20 923.50 L 524.22 920.31 L 524.93 919.60 L 530.95 916.41 L 533.43 914.64 L 535.21 913.93 L 535.91 913.22 L 540.17 911.10 L 542.65 909.33 L 549.38 905.78 L 551.86 904.01 L 558.59 900.47 L 561.07 898.70 L 565.32 896.57 L 567.44 894.80 L 568.86 894.09 L 569.57 894.09 L 570.28 893.38 L 574.53 891.26 L 576.66 889.49 L 578.07 888.78 L 578.78 888.78 L 579.49 888.07 L 586.22 884.53 L 588.70 882.76 L 590.47 882.05 L 591.18 881.34 L 592.95 880.63 L 595.43 878.86 L 597.20 878.15 L 597.91 877.44 L 602.16 875.32 L 604.64 873.54 L 608.90 871.42 L 611.38 869.65 L 613.15 868.94 L 613.86 868.23 L 620.59 864.69 L 623.07 862.92 L 629.80 859.37 L 630.51 858.66 L 634.05 856.89 L 636.53 855.12 L 638.30 854.41 L 639.01 853.70 L 645.74 850.16 L 648.22 848.39 L 654.95 844.85 L 657.43 843.08 L 664.16 839.53 L 666.64 837.76 L 670.90 835.64 L 673.37 833.86 L 680.11 830.32 L 682.59 828.55 L 689.32 825.01 L 691.80 823.24 L 696.05 821.11 L 698.17 819.34 L 699.59 818.63 L 700.30 818.63 L 701.01 817.92 L 705.26 815.80 L 707.39 814.02 L 708.80 813.32 L 709.51 813.32 L 710.22 812.61 L 714.47 810.48 L 716.60 808.71 L 718.01 808.00 L 718.72 808.00 L 719.43 807.29 L 723.68 805.17 L 725.81 803.40 L 728.64 802.33 L 729.35 801.62 L 732.89 799.85 L 735.37 798.08 L 737.85 797.02 L 741.75 794.18 L 743.17 793.48 L 743.88 793.48 L 744.59 792.77 L 748.84 790.64 L 751.32 788.87 L 758.05 785.33 L 760.17 783.56 L 761.59 782.85 L 762.30 782.85 L 763.01 782.14 L 765.49 781.08 L 766.20 780.37 L 772.22 777.18 L 774.70 775.41 L 776.47 774.70 L 778.95 772.93 L 781.43 771.87 L 785.33 769.03 L 786.74 768.32 L 787.45 768.32 L 788.16 767.61 L 790.64 766.55 L 794.54 763.72 L 795.96 763.01 L 796.66 763.01 L 797.37 762.30 L 799.14 761.59 L 801.27 759.82 L 802.69 759.11 L 803.40 759.11 L 804.10 758.40 L 806.58 757.34 L 810.48 754.51 L 811.90 753.80 L 812.61 753.80 L 816.50 750.96 L 819.69 749.19 L 820.40 749.19 L 827.49 744.59 L 830.68 743.17 L 834.22 740.69 L 838.12 738.92 L 838.82 738.21 L 840.60 737.50 L 843.08 735.73 L 847.33 733.60 L 849.81 731.83 L 854.06 729.71 L 856.54 727.93 L 862.92 724.75 L 867.17 721.56 L 867.17 721.20 L 868.58 719.79 L 870.36 715.89 L 871.77 713.76 L 874.25 711.28 L 876.73 709.87 L 877.44 709.87 L 879.92 708.80 L 882.40 708.80 L 882.76 708.45 L 882.76 316.97 L 882.40 316.61 L 879.92 316.61 L 879.57 316.26 L 876.73 315.55 L 874.25 314.13 L 871.77 311.65 L 870.36 309.53 L 870.00 308.11 L 867.88 304.21 L 865.04 301.38 L 861.85 299.25 L 860.08 298.55 L 859.37 297.84 L 853.35 294.65 L 852.64 293.94 L 849.10 292.17 L 848.39 291.46 L 843.78 289.33 L 841.66 287.56 L 839.89 286.85 L 839.18 286.15 L 835.64 284.37 L 834.93 283.67 L 830.32 281.54 L 828.55 280.12 L 824.30 278.00 L 822.53 276.58 L 820.05 275.52 L 816.15 272.68 L 809.77 269.49 L 807.65 267.72 L 805.17 266.66 L 799.14 262.76 L 796.66 261.70 L 795.96 260.99 L 795.25 260.99 L 793.83 260.28 L 791.70 258.51 L 789.93 257.80 L 789.22 257.09 L 788.52 257.09 L 787.10 256.39 L 783.20 253.55 L 780.72 252.49 L 778.24 250.72 L 777.53 250.72 L 776.12 250.01 L 773.28 247.88 L 772.57 247.88 L 771.16 247.17 L 767.26 244.34 L 764.43 243.28 L 760.53 240.44 L 758.05 239.38 L 757.34 238.67 L 756.63 238.67 L 755.21 237.96 L 753.09 236.19 L 748.84 234.07 L 748.13 233.36 L 742.11 230.17 L 741.40 229.46 L 740.69 229.46 L 739.27 228.75 L 735.37 225.92 L 732.89 224.86 L 732.19 224.15 L 728.64 222.38 L 726.16 220.60 L 723.33 219.54 L 719.43 216.71 L 716.95 215.64 L 716.24 214.94 L 710.22 211.75 L 709.51 211.04 L 708.80 211.04 L 707.39 210.33 L 705.26 208.56 L 703.49 207.85 L 700.30 205.72 L 699.59 205.72 L 698.17 205.02 L 696.05 203.24 L 695.34 203.24 L 693.92 202.54 L 689.32 199.35 L 687.55 198.64 L 686.84 197.93 L 685.07 197.22 L 682.59 195.45 L 680.81 194.74 L 680.11 194.03 L 675.85 191.91 L 673.37 190.14 L 669.12 188.01 L 666.64 186.24 L 664.87 185.53 L 664.16 184.82 L 659.91 182.70 L 657.43 180.92 L 653.18 178.80 L 650.70 177.03 L 646.45 174.90 L 643.97 173.13 L 642.20 172.42 L 641.49 171.71 L 634.76 168.17 L 634.05 167.46 L 630.51 165.69 L 628.03 163.92 L 626.26 163.21 L 625.55 162.50 L 621.30 160.38 L 618.82 158.60 L 612.08 155.06 L 609.60 153.29 L 607.83 152.58 L 607.12 151.87 L 605.35 151.16 L 602.87 149.39 L 601.10 148.68 L 600.39 147.98 L 596.14 145.85 L 593.66 144.08 L 589.41 141.95 L 586.93 140.18 L 585.16 139.47 L 584.45 138.77 L 580.20 136.64 L 577.72 134.87 L 573.47 132.74 L 570.99 130.97 L 564.26 127.43 L 563.55 126.72 L 557.53 123.53 L 555.05 121.76 L 548.31 118.22 L 547.61 117.51 L 541.58 114.32 L 539.10 112.55 L 532.37 109.01 L 531.66 108.30 L 525.64 105.11 L 523.16 103.34 L 521.39 102.63 L 520.68 101.92 L 518.55 100.86 L 516.43 100.50 Z M 481.35 156.12 L 481.71 156.48 L 484.19 156.48 L 484.54 156.83 L 487.38 157.54 L 489.86 158.96 L 492.34 161.44 L 493.75 163.56 L 494.82 166.40 L 494.82 167.46 L 495.17 167.82 L 495.17 254.61 L 495.53 254.97 L 495.88 257.09 L 498.36 261.35 L 501.19 264.18 L 503.67 265.95 L 505.45 266.66 L 507.93 268.43 L 514.66 271.97 L 517.14 273.75 L 518.91 274.45 L 519.62 275.16 L 525.64 278.35 L 526.35 279.06 L 529.89 280.83 L 532.37 282.60 L 534.14 283.31 L 534.85 284.02 L 536.62 284.73 L 539.10 286.50 L 543.35 288.63 L 545.83 290.40 L 550.09 292.52 L 552.57 294.29 L 556.82 296.42 L 559.30 298.19 L 565.32 301.38 L 569.92 304.57 L 570.63 304.57 L 572.05 305.28 L 574.18 307.05 L 578.43 309.17 L 580.91 310.95 L 585.16 313.07 L 587.64 314.84 L 589.41 315.55 L 591.89 317.32 L 598.62 320.87 L 601.10 322.64 L 605.35 324.76 L 606.06 325.47 L 612.08 328.66 L 612.79 329.37 L 613.86 329.72 L 614.56 330.43 L 616.34 331.14 L 617.75 332.20 L 618.46 332.20 L 619.52 332.91 L 620.59 332.91 L 620.94 333.27 L 622.36 333.27 L 622.71 333.62 L 626.26 333.62 L 626.61 333.27 L 630.15 332.91 L 635.82 329.72 L 639.01 326.18 L 640.43 323.35 L 640.43 322.64 L 641.49 320.16 L 641.49 317.68 L 641.84 317.32 L 641.84 316.26 L 641.49 315.91 L 641.49 313.43 L 641.14 313.07 L 640.78 310.59 L 639.01 307.05 L 636.88 304.21 L 636.53 304.21 L 633.70 301.73 L 630.15 299.96 L 629.44 299.25 L 626.26 297.84 L 624.48 296.42 L 620.94 294.65 L 620.23 293.94 L 616.69 292.17 L 615.98 291.46 L 614.21 290.75 L 613.50 290.04 L 611.73 289.33 L 611.02 288.63 L 609.25 287.92 L 607.48 286.50 L 605.71 285.79 L 605.00 285.08 L 603.23 284.37 L 602.52 283.67 L 595.79 280.12 L 593.31 278.35 L 590.47 277.29 L 589.76 276.58 L 586.93 275.16 L 585.87 274.10 L 584.10 273.39 L 583.39 272.68 L 581.62 271.97 L 580.91 271.27 L 579.14 270.56 L 578.43 269.85 L 576.66 269.14 L 575.95 268.43 L 569.22 264.89 L 566.74 263.12 L 564.97 262.41 L 564.26 261.70 L 562.49 260.99 L 561.78 260.28 L 560.01 259.57 L 559.30 258.87 L 557.53 258.16 L 556.82 257.45 L 550.09 253.91 L 547.61 252.13 L 544.77 251.07 L 542.65 249.30 L 535.91 245.76 L 532.02 242.22 L 530.25 239.38 L 530.25 238.67 L 529.54 237.26 L 529.54 236.19 L 529.18 235.84 L 529.18 167.82 L 529.54 167.46 L 529.54 166.40 L 529.89 166.04 L 530.25 164.27 L 532.02 161.44 L 534.50 158.96 L 536.98 157.54 L 537.69 157.54 L 540.17 156.48 L 542.65 156.48 L 543.00 156.12 L 543.35 156.48 L 545.83 156.48 L 546.19 156.83 L 549.02 157.54 L 554.34 160.38 L 555.05 161.08 L 555.75 161.08 L 557.17 161.79 L 559.30 163.56 L 563.55 165.69 L 564.26 166.40 L 567.80 168.17 L 568.51 168.88 L 569.22 168.88 L 570.63 169.59 L 572.76 171.36 L 574.53 172.07 L 575.24 172.78 L 575.95 172.78 L 577.36 173.48 L 579.49 175.26 L 583.74 177.38 L 584.45 178.09 L 587.99 179.86 L 588.70 180.57 L 589.41 180.57 L 590.83 181.28 L 592.95 183.05 L 597.20 185.18 L 597.91 185.88 L 601.46 187.66 L 602.16 188.36 L 602.87 188.36 L 604.29 189.07 L 606.42 190.84 L 610.67 192.97 L 611.38 193.68 L 614.92 195.45 L 615.63 196.16 L 616.34 196.16 L 617.75 196.87 L 619.88 198.64 L 621.65 199.35 L 622.36 200.06 L 623.07 200.06 L 624.48 200.76 L 626.61 202.54 L 630.86 204.66 L 633.34 206.43 L 635.11 207.14 L 637.59 208.91 L 641.84 211.04 L 642.55 211.75 L 648.58 214.94 L 649.28 215.64 L 652.83 217.42 L 653.54 218.12 L 654.24 218.12 L 655.66 218.83 L 657.79 220.60 L 659.56 221.31 L 660.27 222.02 L 660.98 222.02 L 662.39 222.73 L 664.52 224.50 L 666.29 225.21 L 667.00 225.92 L 667.71 225.92 L 669.12 226.63 L 671.25 228.40 L 673.02 229.11 L 673.73 229.82 L 674.44 229.82 L 675.85 230.52 L 677.98 232.30 L 679.75 233.00 L 682.94 235.13 L 683.65 235.13 L 685.07 235.84 L 687.90 237.96 L 691.44 239.74 L 692.15 240.44 L 692.86 240.44 L 694.28 241.15 L 697.11 243.28 L 703.13 246.47 L 705.61 248.24 L 712.35 251.78 L 714.83 253.55 L 721.56 257.09 L 724.04 258.87 L 730.77 262.41 L 733.25 264.18 L 739.98 267.72 L 740.69 268.43 L 746.71 271.62 L 747.42 272.33 L 749.19 273.04 L 749.90 273.75 L 750.61 273.75 L 752.03 274.45 L 754.15 276.23 L 755.92 276.93 L 756.63 277.64 L 758.40 278.35 L 760.88 280.12 L 767.61 283.67 L 770.09 285.44 L 776.83 288.98 L 779.30 290.75 L 781.08 291.46 L 781.78 292.17 L 788.52 295.71 L 789.22 296.42 L 792.77 298.19 L 795.25 299.96 L 799.85 302.09 L 803.40 305.28 L 804.81 307.40 L 806.23 310.95 L 806.23 312.01 L 806.58 312.36 L 806.58 316.61 L 806.23 316.97 L 806.23 318.03 L 805.17 320.87 L 803.75 322.99 L 801.27 325.47 L 799.14 326.89 L 797.37 327.60 L 796.66 328.31 L 794.89 329.01 L 794.18 329.72 L 792.41 330.43 L 789.93 332.20 L 788.16 332.91 L 787.45 333.62 L 785.68 334.33 L 784.97 335.04 L 783.20 335.75 L 780.72 337.52 L 776.47 339.64 L 773.99 341.41 L 769.74 343.54 L 767.26 345.31 L 765.49 346.02 L 763.36 347.79 L 761.95 348.50 L 761.24 348.50 L 760.53 349.21 L 756.28 351.33 L 753.80 353.10 L 749.55 355.23 L 747.42 357.00 L 746.00 357.71 L 745.29 357.71 L 744.59 358.42 L 742.81 359.13 L 740.33 360.90 L 736.08 363.02 L 733.96 364.80 L 732.54 365.50 L 731.83 365.50 L 730.41 366.57 L 728.64 367.28 L 725.81 370.11 L 725.45 370.11 L 724.75 371.53 L 723.33 372.94 L 721.56 376.84 L 721.56 378.26 L 721.20 378.61 L 721.20 381.45 L 720.85 381.80 L 720.85 512.18 L 721.20 512.53 L 721.20 515.37 L 721.56 515.72 L 721.56 517.14 L 723.68 521.74 L 727.23 525.64 L 729.35 527.06 L 731.48 528.12 L 733.60 528.47 L 733.96 528.83 L 735.37 528.83 L 735.73 529.18 L 739.98 529.18 L 740.33 528.83 L 741.75 528.83 L 742.11 528.47 L 744.23 528.12 L 747.42 526.35 L 751.32 522.81 L 754.15 517.14 L 754.51 512.89 L 754.86 512.53 L 754.86 397.39 L 755.21 397.04 L 755.21 395.97 L 755.57 395.62 L 755.92 393.85 L 757.69 391.01 L 760.17 388.53 L 762.30 387.12 L 764.07 386.41 L 766.20 384.64 L 767.61 383.93 L 768.32 383.93 L 772.93 380.74 L 774.35 380.03 L 775.05 380.03 L 777.53 378.26 L 779.30 377.55 L 780.01 376.84 L 781.78 376.13 L 784.26 374.36 L 786.04 373.65 L 788.16 371.88 L 789.58 371.17 L 790.29 371.17 L 791.00 370.46 L 797.73 366.92 L 800.21 365.15 L 804.46 363.02 L 806.94 361.25 L 811.19 359.13 L 815.44 356.29 L 820.76 354.17 L 823.24 354.17 L 823.59 353.81 L 824.30 354.17 L 826.78 354.17 L 831.38 355.94 L 834.93 359.13 L 836.70 361.96 L 836.70 362.67 L 837.41 364.09 L 837.41 365.15 L 837.76 365.50 L 837.76 658.50 L 837.41 658.85 L 837.41 659.91 L 837.05 660.27 L 836.70 662.04 L 834.93 664.87 L 831.38 668.06 L 826.78 669.83 L 824.30 669.83 L 823.94 670.19 L 823.59 669.83 L 821.11 669.83 L 820.76 669.48 L 817.92 668.77 L 814.38 667.00 L 813.67 666.29 L 810.13 664.52 L 809.42 663.81 L 807.65 663.10 L 806.94 662.39 L 805.17 661.68 L 802.69 659.91 L 800.21 658.85 L 797.73 657.08 L 795.96 656.37 L 793.48 654.60 L 786.74 651.06 L 786.04 650.35 L 780.01 647.16 L 779.30 646.45 L 777.53 645.74 L 775.05 643.97 L 772.57 642.91 L 770.09 641.14 L 768.32 640.43 L 767.61 639.72 L 760.88 636.18 L 758.40 634.40 L 751.67 630.86 L 749.19 629.09 L 743.17 626.26 L 740.33 625.90 L 739.98 625.55 L 735.37 625.55 L 735.02 625.90 L 732.54 626.26 L 731.48 626.96 L 730.77 626.96 L 729.35 627.67 L 726.87 629.44 L 720.14 632.99 L 717.66 634.76 L 710.93 638.30 L 710.22 639.01 L 704.20 642.20 L 703.49 642.91 L 701.72 643.62 L 699.24 645.39 L 697.47 646.10 L 696.76 646.80 L 690.03 650.35 L 687.55 652.12 L 685.77 652.83 L 685.07 653.54 L 678.33 657.08 L 675.85 658.85 L 671.60 660.98 L 669.48 662.75 L 668.06 663.46 L 667.35 663.46 L 666.64 664.16 L 659.91 667.71 L 657.79 669.48 L 656.37 670.19 L 655.66 670.19 L 654.95 670.90 L 648.22 674.44 L 645.74 676.21 L 639.01 679.75 L 636.53 681.52 L 634.76 682.23 L 634.05 682.94 L 632.28 683.65 L 631.57 684.36 L 627.32 686.48 L 624.84 688.25 L 623.07 688.96 L 622.36 689.67 L 616.34 692.86 L 610.67 698.88 L 609.60 701.01 L 609.60 701.72 L 608.90 703.13 L 608.90 704.55 L 608.54 704.91 L 608.54 710.57 L 608.90 710.93 L 608.90 712.35 L 611.02 716.95 L 613.50 720.14 L 616.34 722.27 L 620.94 724.39 L 622.00 724.39 L 622.36 724.75 L 628.03 724.75 L 628.38 724.39 L 629.44 724.39 L 629.80 724.04 L 631.57 723.68 L 633.34 722.27 L 634.76 721.56 L 635.47 721.56 L 636.18 720.85 L 640.43 718.72 L 644.32 715.89 L 645.74 715.18 L 646.45 715.18 L 647.16 714.47 L 651.41 712.35 L 653.89 710.57 L 655.66 709.87 L 656.37 709.16 L 658.14 708.45 L 660.62 706.68 L 664.87 704.55 L 667.35 702.78 L 671.60 700.65 L 673.73 698.88 L 675.15 698.17 L 675.85 698.17 L 676.56 697.47 L 678.33 696.76 L 680.81 694.99 L 682.59 694.28 L 683.29 693.57 L 685.07 692.86 L 687.55 691.09 L 694.28 687.55 L 696.76 685.77 L 698.53 685.07 L 699.24 684.36 L 701.01 683.65 L 703.49 681.88 L 710.22 678.33 L 712.70 676.56 L 716.95 674.44 L 719.08 672.67 L 720.49 671.96 L 721.20 671.96 L 721.91 671.25 L 726.16 669.12 L 728.64 667.35 L 731.48 665.94 L 732.19 665.94 L 734.67 664.87 L 737.15 664.87 L 737.50 664.52 L 738.56 664.52 L 738.92 664.87 L 741.40 664.87 L 741.75 665.23 L 744.59 665.94 L 746.71 667.00 L 747.42 667.71 L 748.13 667.71 L 749.55 668.42 L 751.67 670.19 L 753.44 670.90 L 755.92 672.67 L 762.65 676.21 L 765.13 677.98 L 766.91 678.69 L 769.39 680.46 L 773.64 682.59 L 774.35 683.29 L 777.89 685.07 L 778.60 685.77 L 782.14 687.55 L 782.85 688.25 L 784.62 688.96 L 785.33 689.67 L 788.87 691.44 L 789.58 692.15 L 790.29 692.15 L 791.70 692.86 L 793.83 694.63 L 795.60 695.34 L 796.31 696.05 L 797.02 696.05 L 798.44 696.76 L 800.92 698.53 L 804.10 701.72 L 805.52 703.84 L 806.58 706.68 L 806.58 707.74 L 806.94 708.09 L 806.94 712.35 L 806.58 712.70 L 806.58 713.76 L 805.52 716.60 L 804.10 718.72 L 800.56 721.91 L 796.66 723.68 L 794.18 725.45 L 792.41 726.16 L 790.29 727.93 L 788.87 728.64 L 788.16 728.64 L 787.45 729.35 L 785.68 730.06 L 783.56 731.83 L 782.14 732.54 L 781.43 732.54 L 780.72 733.25 L 776.47 735.37 L 775.76 736.08 L 769.74 739.27 L 767.26 741.04 L 760.53 744.59 L 758.05 746.36 L 756.28 747.07 L 754.15 748.84 L 752.73 749.55 L 752.03 749.55 L 751.32 750.25 L 749.55 750.96 L 747.42 752.73 L 746.00 753.44 L 745.29 753.44 L 744.59 754.15 L 740.33 756.28 L 739.63 756.99 L 733.60 760.17 L 731.12 761.95 L 724.39 765.49 L 721.91 767.26 L 715.18 770.80 L 712.70 772.57 L 710.93 773.28 L 710.22 773.99 L 708.45 774.70 L 705.97 776.47 L 701.72 778.60 L 699.24 780.37 L 694.99 782.49 L 692.86 784.26 L 691.44 784.97 L 690.73 784.97 L 690.03 785.68 L 685.77 787.81 L 685.07 788.52 L 679.04 791.70 L 676.56 793.48 L 674.79 794.18 L 674.08 794.89 L 669.83 797.02 L 667.35 798.79 L 663.10 800.92 L 660.98 802.69 L 659.56 803.40 L 658.85 803.40 L 658.14 804.10 L 656.37 804.81 L 653.89 806.58 L 652.12 807.29 L 651.41 808.00 L 647.16 810.13 L 644.68 811.90 L 640.43 814.02 L 638.30 815.80 L 636.88 816.50 L 636.18 816.50 L 635.47 817.21 L 633.70 817.92 L 631.57 819.69 L 630.15 820.40 L 629.44 820.40 L 628.74 821.11 L 624.48 823.24 L 622.00 825.01 L 617.75 827.13 L 615.63 828.90 L 614.21 829.61 L 613.50 829.61 L 612.79 830.32 L 611.02 831.03 L 608.90 832.80 L 607.48 833.51 L 606.77 833.51 L 606.06 834.22 L 601.81 836.34 L 599.33 838.12 L 592.60 841.66 L 590.12 843.43 L 585.87 845.56 L 583.39 847.33 L 581.62 848.04 L 580.91 848.74 L 576.66 850.87 L 574.18 852.64 L 572.40 853.35 L 571.70 854.06 L 567.44 856.18 L 564.97 857.96 L 563.19 858.66 L 561.07 860.44 L 553.98 863.98 L 551.86 865.75 L 546.19 867.88 L 543.71 867.88 L 543.35 868.23 L 542.65 867.88 L 540.17 867.88 L 539.81 867.52 L 536.98 866.81 L 534.50 865.40 L 532.02 862.92 L 530.60 860.79 L 529.54 857.96 L 529.54 856.89 L 529.18 856.54 L 529.18 769.74 L 527.06 764.78 L 525.29 762.30 L 522.81 759.82 L 520.68 758.40 L 518.91 757.69 L 518.20 756.99 L 512.18 753.80 L 511.47 753.09 L 507.93 751.32 L 505.45 749.55 L 498.71 746.00 L 496.23 744.23 L 494.46 743.52 L 491.98 741.75 L 490.21 741.04 L 489.50 740.33 L 487.73 739.63 L 485.25 737.85 L 481.00 735.73 L 478.52 733.96 L 474.27 731.83 L 471.79 730.06 L 467.54 727.93 L 465.06 726.16 L 463.29 725.45 L 461.16 723.68 L 459.39 722.97 L 456.91 721.20 L 455.14 720.49 L 454.43 719.79 L 452.66 719.08 L 450.18 717.31 L 445.93 715.18 L 445.22 714.47 L 441.68 712.70 L 439.20 710.93 L 437.42 710.22 L 436.72 709.51 L 434.94 708.80 L 432.46 707.03 L 428.21 704.91 L 425.73 703.13 L 419.00 699.59 L 416.52 697.82 L 414.75 697.11 L 414.04 696.40 L 413.33 696.40 L 411.92 695.69 L 409.79 693.92 L 408.02 693.21 L 406.60 692.15 L 405.89 692.15 L 404.83 691.44 L 403.77 691.44 L 403.41 691.09 L 402.00 691.09 L 401.64 690.73 L 397.04 690.73 L 396.68 691.09 L 393.14 691.80 L 391.01 692.86 L 388.53 694.63 L 386.41 696.76 L 385.34 698.17 L 383.57 701.72 L 383.57 702.43 L 382.86 703.84 L 382.86 704.91 L 382.51 705.26 L 382.51 710.57 L 382.86 710.93 L 382.86 712.35 L 385.34 717.66 L 388.18 720.85 L 392.43 723.68 L 396.68 725.81 L 399.16 727.58 L 400.58 727.93 L 402.70 729.35 L 404.48 730.06 L 405.18 730.77 L 408.73 732.54 L 413.33 735.73 L 417.23 737.50 L 419.36 739.27 L 421.13 739.98 L 421.84 740.69 L 423.61 741.40 L 424.32 742.11 L 426.09 742.81 L 426.80 743.52 L 428.57 744.23 L 431.76 746.36 L 432.46 746.36 L 433.88 747.07 L 434.59 747.77 L 437.42 749.19 L 438.49 750.25 L 440.26 750.96 L 440.97 751.67 L 442.74 752.38 L 443.45 753.09 L 445.22 753.80 L 445.93 754.51 L 447.70 755.21 L 448.41 755.92 L 450.18 756.63 L 450.89 757.34 L 452.66 758.05 L 453.37 758.76 L 455.14 759.47 L 458.33 761.59 L 459.03 761.59 L 460.45 762.30 L 461.16 763.01 L 465.41 765.13 L 467.54 766.91 L 469.31 767.61 L 470.02 768.32 L 471.79 769.03 L 472.50 769.74 L 474.27 770.45 L 474.98 771.16 L 476.75 771.87 L 477.46 772.57 L 484.19 776.12 L 486.67 777.89 L 488.44 778.60 L 492.34 782.14 L 494.11 784.97 L 494.11 785.68 L 494.82 787.10 L 494.82 788.16 L 495.17 788.52 L 495.17 856.54 L 494.82 856.89 L 494.82 857.96 L 494.46 858.31 L 494.11 860.08 L 492.34 862.92 L 489.86 865.40 L 487.38 866.81 L 486.67 866.81 L 484.19 867.88 L 481.71 867.88 L 481.35 868.23 L 481.00 867.88 L 478.52 867.88 L 478.17 867.52 L 475.33 866.81 L 472.50 865.40 L 471.79 864.69 L 465.06 861.14 L 462.58 859.37 L 455.85 855.83 L 453.37 854.06 L 446.64 850.52 L 444.16 848.74 L 437.42 845.20 L 434.94 843.43 L 430.69 841.30 L 428.21 839.53 L 421.48 835.99 L 419.00 834.22 L 412.27 830.68 L 409.79 828.90 L 403.06 825.36 L 400.58 823.59 L 393.85 820.05 L 391.37 818.28 L 384.64 814.73 L 382.16 812.96 L 375.42 809.42 L 372.94 807.65 L 366.21 804.10 L 363.73 802.33 L 357.00 798.79 L 354.52 797.02 L 347.79 793.48 L 345.31 791.70 L 341.06 789.58 L 338.58 787.81 L 331.85 784.26 L 329.37 782.49 L 322.64 778.95 L 320.16 777.18 L 313.43 773.64 L 312.72 772.93 L 306.69 769.74 L 304.21 767.97 L 302.44 767.26 L 301.73 766.55 L 297.48 764.43 L 295.00 762.65 L 288.27 759.11 L 285.79 757.34 L 284.02 756.63 L 280.83 754.51 L 280.12 754.51 L 278.71 753.80 L 276.58 752.03 L 274.81 751.32 L 274.10 750.61 L 272.33 749.90 L 269.85 748.13 L 263.12 744.59 L 260.64 742.81 L 253.91 739.27 L 251.43 737.50 L 249.65 736.79 L 246.47 734.67 L 245.76 734.67 L 244.34 733.96 L 242.22 732.19 L 240.44 731.48 L 239.74 730.77 L 237.96 730.06 L 235.48 728.29 L 231.23 726.16 L 228.75 724.39 L 224.50 722.27 L 220.25 718.37 L 218.83 716.24 L 217.77 713.41 L 217.77 712.35 L 217.42 711.99 L 217.42 707.74 L 217.77 707.39 L 217.77 706.32 L 218.83 703.49 L 220.25 701.36 L 222.73 698.88 L 224.86 697.82 L 225.56 697.11 L 227.34 696.40 L 228.04 695.69 L 229.82 694.99 L 230.52 694.28 L 232.30 693.57 L 234.78 691.80 L 236.55 691.09 L 237.26 690.38 L 239.03 689.67 L 239.74 688.96 L 241.51 688.25 L 243.63 686.48 L 245.05 685.77 L 245.76 685.77 L 246.47 685.07 L 253.20 681.52 L 255.32 679.75 L 256.74 679.04 L 257.45 679.04 L 258.16 678.33 L 259.93 677.63 L 260.64 676.92 L 267.37 673.37 L 269.85 671.60 L 271.62 670.90 L 272.33 670.19 L 279.06 666.64 L 281.19 664.87 L 282.60 664.16 L 283.31 664.16 L 284.02 663.46 L 285.79 662.75 L 286.50 662.04 L 288.27 661.33 L 288.98 660.62 L 295.71 657.08 L 299.96 653.18 L 302.09 649.64 L 302.09 648.93 L 302.80 647.87 L 303.15 644.68 L 303.51 644.32 L 303.51 510.05 L 303.15 509.70 L 302.80 506.51 L 300.67 502.26 L 298.19 499.42 L 295.71 497.65 L 292.88 496.23 L 292.17 496.23 L 290.75 495.53 L 288.98 495.53 L 288.63 495.17 L 284.37 495.17 L 284.02 495.53 L 281.19 495.88 L 279.41 496.94 L 278.71 496.94 L 275.16 499.42 L 272.68 502.26 L 270.20 507.57 L 270.20 509.34 L 269.85 509.70 L 269.85 626.96 L 269.49 627.32 L 269.49 628.38 L 269.14 628.74 L 268.79 630.51 L 267.01 633.34 L 264.53 635.82 L 261.70 637.24 L 259.22 639.01 L 254.26 641.49 L 251.78 643.26 L 250.01 643.97 L 249.30 644.68 L 245.05 646.80 L 242.57 648.58 L 240.80 649.28 L 240.09 649.99 L 238.32 650.70 L 237.61 651.41 L 230.88 654.95 L 228.40 656.72 L 226.63 657.43 L 225.92 658.14 L 224.15 658.85 L 223.44 659.56 L 221.67 660.27 L 220.96 660.98 L 214.23 664.52 L 211.75 666.29 L 209.27 667.35 L 207.14 668.77 L 206.43 668.77 L 203.95 669.83 L 201.47 669.83 L 201.12 670.19 L 200.41 669.83 L 197.93 669.83 L 193.32 668.06 L 189.78 664.87 L 188.01 662.04 L 188.01 661.33 L 187.30 659.91 L 187.30 658.85 L 186.95 658.50 L 186.95 365.86 L 187.30 365.50 L 187.30 364.44 L 187.66 364.09 L 188.01 362.32 L 189.78 359.48 L 193.32 356.29 L 197.93 354.52 L 200.41 354.52 L 200.76 354.17 L 201.12 354.52 L 203.60 354.52 L 203.95 354.88 L 206.79 355.58 L 207.85 356.29 L 208.56 356.29 L 209.98 357.00 L 212.10 358.77 L 213.87 359.48 L 216.35 361.25 L 223.79 365.15 L 224.50 365.86 L 230.52 369.05 L 231.23 369.76 L 234.78 371.53 L 235.48 372.24 L 237.96 373.30 L 238.67 374.01 L 244.70 377.20 L 245.40 377.90 L 247.17 378.61 L 249.65 380.38 L 252.13 381.45 L 252.84 382.16 L 253.55 382.16 L 254.97 382.86 L 257.09 384.64 L 261.35 386.76 L 263.83 388.53 L 266.31 389.60 L 268.79 391.37 L 271.62 392.43 L 273.75 394.20 L 275.52 394.91 L 278.71 397.04 L 279.41 397.04 L 280.48 397.74 L 281.19 397.74 L 282.60 398.45 L 284.02 398.45 L 284.37 398.81 L 288.98 398.81 L 289.33 398.45 L 290.75 398.45 L 291.11 398.10 L 292.88 397.74 L 295.71 396.33 L 296.42 395.62 L 300.67 393.49 L 303.15 391.72 L 309.88 388.18 L 312.36 386.41 L 319.09 382.86 L 321.57 381.09 L 328.31 377.55 L 330.79 375.78 L 337.52 372.24 L 340.00 370.46 L 346.73 366.92 L 349.21 365.15 L 355.94 361.61 L 358.42 359.84 L 360.19 359.13 L 360.90 358.42 L 365.15 356.29 L 365.86 355.58 L 371.88 352.40 L 374.36 350.63 L 376.13 349.92 L 376.84 349.21 L 381.09 347.08 L 383.57 345.31 L 385.34 344.60 L 386.05 343.89 L 390.30 341.77 L 391.01 341.06 L 397.04 337.87 L 399.52 336.10 L 401.29 335.39 L 402.00 334.68 L 408.02 331.49 L 410.14 329.37 L 410.50 329.37 L 413.33 326.18 L 414.75 323.35 L 415.46 319.80 L 415.81 319.45 L 415.81 313.78 L 415.46 313.43 L 415.46 311.65 L 413.33 307.05 L 410.14 303.51 L 406.96 301.38 L 403.77 299.96 L 402.35 299.96 L 402.00 299.61 L 396.68 299.61 L 396.33 299.96 L 394.91 299.96 L 390.30 302.09 L 389.60 302.80 L 385.34 304.92 L 381.09 307.76 L 376.84 309.88 L 374.36 311.65 L 372.59 312.36 L 370.11 314.13 L 365.86 316.26 L 365.15 316.97 L 361.61 318.74 L 359.13 320.51 L 357.36 321.22 L 354.88 322.99 L 353.10 323.70 L 352.40 324.41 L 350.63 325.12 L 349.92 325.83 L 346.37 327.60 L 343.89 329.37 L 342.12 330.08 L 341.41 330.79 L 339.64 331.49 L 337.16 333.27 L 332.91 335.39 L 330.79 337.16 L 329.37 337.87 L 328.66 337.87 L 327.95 338.58 L 326.18 339.29 L 325.47 340.00 L 321.93 341.77 L 319.45 343.54 L 317.68 344.25 L 316.97 344.96 L 315.20 345.67 L 312.72 347.44 L 310.95 348.15 L 310.24 348.85 L 308.47 349.56 L 305.99 351.33 L 304.21 352.04 L 302.09 353.81 L 300.67 354.52 L 299.96 354.52 L 299.25 355.23 L 297.48 355.94 L 296.77 356.65 L 292.88 358.77 L 292.17 358.77 L 289.69 359.84 L 287.21 359.84 L 286.85 360.19 L 286.50 359.84 L 284.02 359.84 L 279.41 358.06 L 278.71 357.36 L 276.93 356.65 L 276.23 355.94 L 274.45 355.23 L 271.27 353.10 L 270.56 353.10 L 269.14 352.40 L 267.01 350.63 L 265.24 349.92 L 264.53 349.21 L 260.28 347.08 L 257.80 345.31 L 251.07 341.77 L 248.59 340.00 L 246.82 339.29 L 246.11 338.58 L 239.38 335.04 L 236.90 333.27 L 235.13 332.56 L 231.94 330.43 L 231.23 330.43 L 229.82 329.72 L 227.69 327.95 L 225.92 327.24 L 225.21 326.53 L 223.08 325.47 L 220.60 322.99 L 219.19 320.87 L 218.12 318.03 L 218.12 316.97 L 217.77 316.61 L 217.77 312.36 L 218.12 312.01 L 218.12 310.95 L 219.54 307.40 L 220.96 305.28 L 224.50 302.09 L 228.40 300.32 L 229.11 299.61 L 233.36 297.48 L 235.48 295.71 L 236.90 295.00 L 237.61 295.00 L 238.32 294.29 L 240.09 293.59 L 242.57 291.81 L 244.34 291.11 L 245.05 290.40 L 249.30 288.27 L 251.78 286.50 L 256.03 284.37 L 258.51 282.60 L 262.76 280.48 L 265.24 278.71 L 267.01 278.00 L 267.72 277.29 L 274.45 273.75 L 276.93 271.97 L 278.71 271.27 L 279.41 270.56 L 281.19 269.85 L 283.67 268.08 L 287.92 265.95 L 290.40 264.18 L 294.65 262.05 L 296.77 260.28 L 298.19 259.57 L 298.90 259.57 L 299.61 258.87 L 303.86 256.74 L 306.34 254.97 L 308.11 254.26 L 308.82 253.55 L 310.59 252.84 L 313.07 251.07 L 319.80 247.53 L 322.28 245.76 L 324.05 245.05 L 324.76 244.34 L 326.53 243.63 L 329.01 241.86 L 335.75 238.32 L 338.23 236.55 L 340.00 235.84 L 340.71 235.13 L 342.48 234.42 L 344.96 232.65 L 351.69 229.11 L 354.17 227.34 L 360.90 223.79 L 363.38 222.02 L 365.15 221.31 L 365.86 220.60 L 367.63 219.90 L 370.11 218.12 L 376.84 214.58 L 379.32 212.81 L 386.05 209.27 L 388.53 207.50 L 390.30 206.79 L 391.01 206.08 L 392.78 205.37 L 395.26 203.60 L 402.00 200.06 L 404.48 198.28 L 406.25 197.58 L 406.96 196.87 L 408.73 196.16 L 411.21 194.39 L 417.94 190.84 L 420.42 189.07 L 427.15 185.53 L 429.63 183.76 L 431.40 183.05 L 432.11 182.34 L 433.88 181.63 L 436.36 179.86 L 443.09 176.32 L 445.57 174.55 L 449.82 172.42 L 452.30 170.65 L 459.03 167.11 L 459.74 166.40 L 465.77 163.21 L 466.47 162.50 L 468.25 161.79 L 468.95 161.08 L 472.50 159.31 L 473.21 158.60 L 478.52 156.48 L 481.00 156.48 Z"/>
</svg>
